<?xml version="1.0" encoding="UTF-8"?>
<svg version="1.1" viewBox="0 0 1008 980" width="252" height="245" xmlns="http://www.w3.org/2000/svg">
<path transform="translate(196,51)" d="m0 0h391l13 3 11 7 8 11 3 7 1 6v33h84l12 3 11 6 9 8 7 10 5 12 1 6v140h191l12 3 10 7 8 9 5 10 1 4v379l-2 9-6 11-9 9-10 5-7 2-33 1h-160v136l-2 12-7 14-9 10-11 7-10 4-6 1-68 1h-549l-14-1-13-4-11-7-7-7-7-11-4-10-1-4-1-13v-707l1-13 5-13 7-11 10-9 16-8 5-1h86v-35l4-11 6-8 9-8 9-4zm33 30-33 1-2 1-1 3v91l23 1h317l58-1 1-1v-90l-1-3-2-1-40-1zm-148 67-10 5-6 8-2 6v719l3 9 4 5 6 4 6 2h622l10-5 6-8 2-9v-132l-139-1-11-2-12-6-8-8-7-14-1-5v-379l4-11 6-9 8-7 10-5 5-1 145-1v-136l-4-9-4-5-7-4-4-1h-80l-1 27-2 10-6 10-8 7-10 4-43 1h-354l-11-1-12-6-8-9-4-9-1-5-1-29zm501 185-6 3-2 5v296h374l1-24v-238l-1-35-2-4-5-3h-92l-1 16-1 87-4 16-8 16-8 11-10 10-10 7-14 7-14 4-6 1h-25l-14-3-16-7-14-10-10-10-9-14-6-13-4-16-1-11-1-91zm122 0v95l2 11 8 16 10 11 11 7 13 5 12 2 15-2 13-5 11-8 7-7 7-11 3-7 2-14v-93zm-130 334v46l3 6 5 2h357l5-2 4-5 1-47z" fill="#040303"/>
<path transform="translate(140,235)" d="m0 0 8 1 7 6 2 4v567h455l6 3 4 6 1 8-4 8-5 4-4 1h-472l-5-3-5-5-1-3v-587l6-7z" fill="#010000"/>
<path transform="translate(218,388)" d="m0 0h73l7 2 7 7 1 3v81l-3 5-5 5-4 1h-81l-5-3-5-7-1-6v-74l3-7 7-6zm15 31-1 2 1 40 1 1h41v-43z" fill="#030202"/>
<path transform="translate(218,670)" d="m0 0h68l10 1 6 4 4 6v81l-4 7-5 4-4 1h-79l-6-3-5-7-1-7v-74l3-6 7-6zm15 31v43h41l1-1v-42z" fill="#030202"/>
<path transform="translate(212,530)" d="m0 0h84l6 4 4 6v82l-6 9-6 2h-82l-8-7-2-7v-77l3-6zm20 30 1 43h42l1-42-1-1z" fill="#020101"/>
<path transform="translate(212,248)" d="m0 0h85l5 5 4 6v81l-3 5-7 6h-84l-6-5-3-6-1-4v-74l2-7zm21 30v42l1 1h40l1-1v-42z" fill="#030202"/>
<path transform="translate(344,425)" d="m0 0h119l7 3 4 5 1 2v10l-4 6-5 4-8 1h-112l-7-3-5-6-1-3v-8l4-6 5-4z" fill="#020101"/>
<path transform="translate(382,284)" d="m0 0h71l14 1 5 4 3 5 1 5-2 8-5 6-3 1-16 1h-104l-7-3-4-5-2-4v-8l4-7 5-3z" fill="#090808"/>
<path transform="translate(343,707)" d="m0 0h120l7 3 4 5 2 8-3 8-6 5-3 1h-121l-6-4-4-7v-8l4-6z" fill="#010000"/>
<path transform="translate(344,566)" d="m0 0h118l8 3 4 5 1 2v10l-4 6-5 4h-124l-6-5-3-6v-7l3-6 6-5z" fill="#010000"/>
</svg>
