<?xml version="1.0" encoding="UTF-8"?>
<svg version="1.1" viewBox="0 0 1667 2048" width="193" height="237" xmlns="http://www.w3.org/2000/svg">
<path transform="translate(793,206)" d="m0 0h81l31 2 21 3 17 5 19 7 20 10 18 11 14 11 13 11 14 14 9 11 4 2h181l23 1 8 2 5 5 5 9 1 5v8l-6 9-10 8-54 29-56 30-22 12-32 16v313h132l32 1 6 3 5 6 4 10v13l-6 8-9 6-28 15-34 18-24 13-18 10-14 8-16 8-19 10-11 5-1 30v285l15-1h118l27 1 9 2 7 6 4 10 1 7-3 9-7 8-14 8-26 14-22 12-29 15-22 12-24 13-19 10-13 6h-2v59l-1 110-2 19-5 22-7 21-8 18-13 22-12 16-14 15-13 13-11 9-13 9-17 10-19 9-27 9-21 5h-4l-1 200-1 19-4 2-14 1h-112l-15-1-2-3-1-7-1-138-1-72-27-6-20-7-18-8-18-10-18-13-15-13-16-16-11-14-9-13-10-17-8-17-9-25-5-25-2-19-1-27v-134l-18-10-64-34-22-12-30-16-22-12-14-9-7-6-4-8v-7l5-12 6-7 5-2 113-1h51v-312l-23-13-26-14-25-13-18-10-34-18-28-15-13-8-10-9-3-7 1-10 6-12 6-5 3-1 45-1h119v-313l-19-9-22-12-27-14-22-12-23-12-22-12-26-14-13-10-5-7-1-3v-8l6-12 4-5 4-2 10-1 67-1 135-1 6-5 8-10 18-18 17-13 17-11 23-12 25-9 23-5 17-2zm-2 30-26 2-19 3-22 7-20 9-18 11-16 12-15 14-8 8-11 14-9 14-10 19-9 24-4 14-2 11-1 11-1 26v1042l2 25 4 18 9 25 12 23 12 17 9 11 12 13 11 9 15 11 21 12 24 10 20 6 21 3h120l20-2 21-6 20-8 16-8 16-10 14-11 12-11 8-8 11-14 10-15 12-23 8-24 4-24 1-12 1-96v-968l-3-31-6-23-8-19-8-16-10-15-10-13-12-13-11-10-14-10-15-9-16-8-15-6-19-6-16-3-29-2zm-357 85 2 2 17 8 23 13 33 17 22 12 25 13 14 8h2l3-14 5-15 7-20 9-23h-131zm787 0-151 2 7 15 9 27 6 19 2 10 10-4 27-14 18-10 26-14 22-12 23-13 5-4v-2zm-785 448 3 3 29 15 22 12 39 20 25 14 14 9h2v-73zm660 0v73l16-8 24-13 18-10 24-13 27-14 16-9 6-5v-1zm0 448-1 1 1 72 14-7 16-9 18-10 23-13 31-16 21-12 5-5zm-656 1 4 4 23 12 22 12 37 19 20 11 18 11 4 3h2v-72zm130 72m219 401-1 102v88h88l1-1 1-111v-78z" fill="#404040"/>
<path transform="translate(819,345)" d="m0 0h30l24 3 17 5 19 8 18 10 16 12 12 11 15 15 12 17 10 19 8 20 6 24 2 14v33l-4 24-5 19-9 21-11 18-9 12-11 12-12 12-16 12-22 12-21 8-19 5-19 3-10 1h-21l-26-4-18-5-18-8-15-8-17-12-12-11-6-5-9-11-12-16-12-22-8-21-5-19-3-23v-22l4-26 5-19 8-19 10-18 12-16 9-10 14-14 13-10 16-10 15-8 19-7 17-4zm7 30-20 2-20 5-18 8-14 8-13 10-10 9-7 7-11 15-10 17-8 20-4 15-2 13v35l4 20 7 20 10 19 11 14 11 12 11 10 15 10 17 9 20 7 16 4 6 1h30l22-4 18-6 17-8 15-10 11-9 10-9 10-12 9-14 8-16 6-18 3-14 2-20-1-22-3-18-7-21-8-17-10-15-8-10-12-12-15-11-16-9-19-8-15-4-13-2z" fill="#404040"/>
<path transform="translate(829,792)" d="m0 0h11l23 2 19 4 22 8 21 11 18 13 13 12 11 11 10 13 9 15 9 19 5 13 6 24 2 13v34l-3 18-5 21-8 19-8 15-8 12-9 12-9 10-8 8-11 9-19 12-16 8-16 6-16 4-21 3-13 1h-16l-20-2-23-5-19-8-19-10-11-8-11-9-8-7-7-8-12-14-12-19-10-21-7-21-4-22-1-10v-21l3-23 5-20 8-20 10-19 10-14 9-11 17-17 13-10 13-8 15-8 24-9 21-4zm-12 30-20 4-16 5-16 8-9 5-11 8-14 12-9 10-12 17-11 21-7 22-3 17-1 22 2 20 5 19 6 16 10 19 11 14 11 12 15 12 13 8 16 8 15 6 20 4 9 1h23l22-3 20-6 20-10 18-12 14-12 9-10 12-18 8-16 6-18 3-14 2-19v-13l-3-24-4-15-8-20-11-19-8-10-9-10-10-9-14-10-19-10-20-7-19-4-9-1z" fill="#404040"/>
<path transform="translate(818,1240)" d="m0 0h31l22 3 21 6 12 5 16 8 14 9 14 11 12 11 10 11 10 14 10 18 8 19 6 21 4 23v31l-4 26-5 18-8 18-8 15-12 17-13 15-11 10-15 11-13 8-19 9-21 7-20 4-10 1h-35l-20-3-20-6-17-7-18-10-16-12-13-12-7-7-9-11-12-18-9-17-8-21-5-22-2-15v-25l4-26 6-21 9-21 10-17 10-13 11-12 14-14 15-11 17-10 20-9 23-6zm3 29-18 3-20 6-20 9-15 10-11 9-13 13-10 13-8 13-8 17-6 19-2 9-2 22v10l2 19 5 19 8 20 8 14 8 11 11 12 8 8 15 11 13 8 21 9 13 4 13 2 13 1h19l17-2 21-6 18-8 14-9 13-10 12-11 13-16 8-13 7-15 6-20 3-18 1-21-3-27-4-15-8-20-10-17-11-14-15-15-10-7-15-9-15-7-18-6-18-4-9-1z" fill="#404040"/>
<path transform="translate(812,741)" d="m0 0h44l29 5 20 6 20 9 13 7 17 11 16 13 12 11 8 8 9 11 9 13 1 3v8l-6 7-9 5-5-1-8-7-13-16-12-14-14-12-15-10-23-12-16-6-19-5-17-3-13-1h-16l-18 2-23 5-15 5-18 8-19 12-16 13-11 10-7 8-9 10-7 6h-8l-9-8-3-9 5-9 12-14 9-10 7-7 17-13 18-12 18-10 21-8 18-5z" fill="#404040"/>
<path transform="translate(817,294)" d="m0 0h38l24 3 21 6 16 6 16 8 14 8 17 12 11 10 8 7 13 14 13 18 3 8-1 7-9 6-6 3-5-1-8-7-14-17-12-13-12-11-13-9-16-9-17-8-18-6-16-3-9-1h-43l-20 3-15 4-15 6-16 8-14 9-13 10-16 15-16 17-7 6h-6l-9-7-3-6 1-9 7-10 12-13 7-8 8-7 10-8 14-10 18-10 17-8 24-8 16-3z" fill="#404040"/>
<path transform="translate(814,1189)" d="m0 0h40l17 2 25 6 15 5 25 12 14 9 16 12 12 11 7 6 7 8 10 12 8 14 1 6-7 8-9 5h-5l-7-6-10-13-12-14-10-10-17-13-15-9-16-8-24-8-19-4-9-1h-36l-19 3-24 7-16 7-18 10-14 10-10 9-8 7-8 8-7 8-5 6-6 4-7-1-6-4-5-7-1-5 6-11 11-13 11-12 10-9 15-11 16-10 19-10 21-8 25-6z" fill="#414141"/>
</svg>
