<svg width="48" height="48" viewBox="0 0 48 48" fill="none" xmlns="http://www.w3.org/2000/svg">
<path d="M38.6591 40.3009C42.7246 36.5482 45.07 31.0364 45.07 24.4886C45.07 22.9641 44.9332 21.4981 44.6791 20.0909H24.43V28.4173H36.0009C35.4927 31.095 33.9682 33.3623 31.6814 34.8868" stroke="black" stroke-linecap="round" stroke-linejoin="round"/>
<path d="M5.23639 33.6555C8.77409 40.6723 16.0255 45.5 24.43 45.5C30.235 45.5 35.1018 43.5845 38.6591 40.3009L31.6814 34.8868C29.7659 36.1768 27.3228 36.9586 24.43 36.9586C18.84 36.9586 14.0905 33.1863 12.39 28.1045" stroke="black" stroke-linecap="round" stroke-linejoin="round"/>
<path d="M5.23639 14.3641C3.77049 17.2568 2.92999 20.5209 2.92999 24C2.92999 27.4791 3.77049 30.7432 5.23639 33.6359L10.8069 29.2968L12.3901 28.085C11.9601 26.795 11.706 25.4268 11.706 24C11.706 22.5732 11.9601 21.205 12.3901 19.915" stroke="black" stroke-linecap="round" stroke-linejoin="round"/>
<path d="M24.43 11.0609C27.5964 11.0609 30.4109 12.1554 32.6586 14.2664L38.8154 8.10962C35.0822 4.63052 30.2349 2.50012 24.4299 2.50012C16.0254 2.50012 8.77397 7.32782 5.23627 14.3642L12.3899 19.9151C14.0904 14.8333 18.84 11.0609 24.43 11.0609Z" stroke="black" stroke-linecap="round" stroke-linejoin="round"/>
</svg>
