<svg width="26" height="26" viewBox="0 0 26 26" fill="none" xmlns="http://www.w3.org/2000/svg">
<path fill-rule="evenodd" clip-rule="evenodd" d="M13 19.5C16.5898 19.5 19.5 16.5898 19.5 13C19.5 9.41015 16.5898 6.5 13 6.5C9.41015 6.5 6.5 9.41015 6.5 13C6.5 16.5898 9.41015 19.5 13 19.5ZM13 17.3333C15.3932 17.3333 17.3333 15.3932 17.3333 13C17.3333 10.6068 15.3932 8.66667 13 8.66667C10.6068 8.66667 8.66667 10.6068 8.66667 13C8.66667 15.3932 10.6068 17.3333 13 17.3333Z" fill="white"/>
<path d="M19.5001 5.41675C18.9018 5.41675 18.4167 5.90178 18.4167 6.50008C18.4167 7.09838 18.9018 7.58341 19.5001 7.58341C20.0984 7.58341 20.5834 7.09838 20.5834 6.50008C20.5834 5.90178 20.0984 5.41675 19.5001 5.41675Z" fill="white"/>
<path fill-rule="evenodd" clip-rule="evenodd" d="M1.79183 4.63244C1.08337 6.02287 1.08337 7.84304 1.08337 11.4834V14.5167C1.08337 18.157 1.08337 19.9772 1.79183 21.3676C2.41501 22.5907 3.40938 23.5851 4.63244 24.2082C6.02287 24.9167 7.84304 24.9167 11.4834 24.9167H14.5167C18.157 24.9167 19.9772 24.9167 21.3676 24.2082C22.5907 23.5851 23.5851 22.5907 24.2082 21.3676C24.9167 19.9772 24.9167 18.157 24.9167 14.5167V11.4834C24.9167 7.84304 24.9167 6.02287 24.2082 4.63244C23.5851 3.40938 22.5907 2.41501 21.3676 1.79183C19.9772 1.08337 18.157 1.08337 14.5167 1.08337H11.4834C7.84304 1.08337 6.02287 1.08337 4.63244 1.79183C3.40938 2.41501 2.41501 3.40938 1.79183 4.63244ZM14.5167 3.25004H11.4834C9.62745 3.25004 8.36581 3.25173 7.39063 3.3314C6.44072 3.40901 5.95495 3.54968 5.61608 3.72234C4.80071 4.1378 4.1378 4.80071 3.72234 5.61608C3.54968 5.95495 3.40901 6.44072 3.3314 7.39063C3.25173 8.36581 3.25004 9.62745 3.25004 11.4834V14.5167C3.25004 16.3727 3.25173 17.6342 3.3314 18.6094C3.40901 19.5594 3.54968 20.0452 3.72234 20.384C4.1378 21.1994 4.80071 21.8622 5.61608 22.2777C5.95495 22.4504 6.44072 22.5911 7.39063 22.6687C8.36581 22.7483 9.62745 22.75 11.4834 22.75H14.5167C16.3727 22.75 17.6342 22.7483 18.6094 22.6687C19.5594 22.5911 20.0452 22.4504 20.384 22.2777C21.1994 21.8622 21.8622 21.1994 22.2777 20.384C22.4504 20.0452 22.5911 19.5594 22.6687 18.6094C22.7483 17.6342 22.75 16.3727 22.75 14.5167V11.4834C22.75 9.62745 22.7483 8.36581 22.6687 7.39063C22.5911 6.44072 22.4504 5.95495 22.2777 5.61608C21.8622 4.80071 21.1994 4.1378 20.384 3.72234C20.0452 3.54968 19.5594 3.40901 18.6094 3.3314C17.6342 3.25173 16.3727 3.25004 14.5167 3.25004Z" fill="white"/>
</svg>
