<?xml version="1.0" encoding="UTF-8"?>
<svg version="1.1" viewBox="0 0 932 1016" width="233" height="254" xmlns="http://www.w3.org/2000/svg">
<path transform="translate(301,33)" d="m0 0h338l10 5 8 9 3 7v16h110l13 2 13 5 11 6 9 7 9 9 9 14 6 15 2 15v761l-2 16-6 16-8 12-11 12-11 8-12 6-14 4-8 1h-603l-14-3-12-5-10-6-12-10-9-12-8-16-4-16v-774l4-15 8-16 7-9 11-11 13-8 12-5 15-3h111v-10l2-10 6-8 7-6zm7 29v55l2 11 4 10 8 10 10 7 10 4 7 1h242l13-3 10-6 9-9 6-12 2-7 1-60-1-1zm-131 37-12 1-12 5-11 8-8 10-5 10-2 9v705h685l1-43v-654l-2-16-6-12-9-10-9-7-11-4-13-2h-102l-1 5-1 24-3 12-8 16-8 10-10 9-12 7-11 4-11 2-242 1-18-2-12-4-10-5-13-10-10-13-7-14-3-10-1-11v-20l-1-1zm-49 777-1 1v30l4 13 5 9 8 9 11 7 11 4 7 1h596l14-4 11-7 7-6 8-13 3-9 1-15v-19l-1-1z" fill="#0A0A0A"/>
<path transform="translate(371,366)" d="m0 0h343l15 1 6 5 3 7-1 7-4 6-4 3h-364l-5-4-3-5v-10l4-6 3-3z" fill="#080808"/>
<path transform="translate(430,676)" d="m0 0h297l6 3 4 6 1 8-5 8-3 3-6 1h-293l-5-3-5-7-1-6 4-8z" fill="#0B0B0B"/>
<path transform="translate(431,483)" d="m0 0h295l6 3 5 6 1 8-3 6-5 5-3 1h-296l-5-3-4-5-2-7 3-7 4-5z" fill="#0A0A0A"/>
<path transform="translate(346,250)" d="m0 0h7l7 3 4 7v9l-3 5-8 6-11 8-10 9-11 11-11 14-10 15-10 17-14 29-3 6-5 5-2 1h-11l-8-7-12-14-11-14-11-13-11-14-11-13-7-11-1-7 4-8 8-5h6l8 5 9 10 8 10 13 16 11 14 6 7 3-4 11-19 11-17 14-19 11-12 12-12 13-10 11-7z" fill="#060606"/>
<path transform="translate(347,442)" d="m0 0 8 1 6 4 3 6v8l-3 5-7 6-13 9-15 14-12 14-11 16-12 20-8 16-10 21-6 5-2 1h-9l-6-4-8-9-8-10-13-16-9-11-13-16-12-15-4-8 1-8 6-7 5-2 10 1 5 4 9 11 13 16 11 14 10 12 2 3 3 1 2-6 10-18 8-12 10-14 8-10 12-14 13-12 17-12z" fill="#060606"/>
<path transform="translate(345,635)" d="m0 0h8l6 3 4 5 1 3v8l-4 6-11 8-12 9-17 17-12 16-11 17-12 22-9 19-5 9-5 3h-10l-5-3-7-7-11-14-11-13-8-10-13-16-11-13-7-12 1-8 3-5 7-4h8l6 3 9 10 8 10 13 16 14 17 5 5 13-23 9-14 11-15 9-11 11-12 13-12 13-9z" fill="#070707"/>
<path transform="translate(425,751)" d="m0 0h119l12 1 6 4 3 5v10l-6 8-3 1h-191l-5-4-3-5-1-6 3-7 4-5 2-1z" fill="#090909"/>
<path transform="translate(367,559)" d="m0 0h164l7 3 5 7v8l-4 6-6 5h-167l-7-6-2-4v-9l3-6z" fill="#040404"/>
<path transform="translate(433,290)" d="m0 0h102l9 2 5 5 2 3v10l-6 8-9 2h-104l-6-3-5-7v-10l4-6z" fill="#121212"/>
<path transform="translate(621,290)" d="m0 0h98l9 1 6 4 4 8-1 7-4 6-3 3-10 1h-100l-6-3-4-5-2-5 1-8 6-7z" fill="#121212"/>
<path transform="translate(627,559)" d="m0 0h99l7 3 4 6 1 8-3 6-5 5-3 1h-100l-6-4-4-7v-7l4-7z" fill="#050505"/>
<path transform="translate(661,751)" d="m0 0h51l16 1 5 3 4 6 1 7-4 8-3 3-3 1h-97l-6-5-3-8 1-7 6-7 2-1z" fill="#090909"/>
</svg>
