<svg width="58" height="50" viewBox="0 0 58 50" fill="none" xmlns="http://www.w3.org/2000/svg">
<path d="M3 13.0625L10.8254 19.5836C11.342 20.0142 11.9933 20.25 12.6659 20.25H45.084C45.7567 20.25 46.4079 20.0142 46.9245 19.5836L54.75 13.0625M13.0625 30.3125H13.0913M44.6875 30.3125H44.7163M17.8369 3H39.9133C41.9767 3 43.8819 4.10564 44.9054 5.89719L53.2349 20.4734C54.2276 22.211 54.75 24.1775 54.75 26.1791V43.25C54.75 44.8379 53.4629 46.125 51.875 46.125H49C47.4121 46.125 46.125 44.8379 46.125 43.25V40.375H11.625V43.25C11.625 44.8379 10.3378 46.125 8.75 46.125H5.875C4.28719 46.125 3 44.8379 3 43.25V26.1791C3 24.1775 3.52227 22.211 4.51521 20.4734L12.8445 5.89719C13.8682 4.10564 15.7734 3 17.8369 3ZM14.5 30.3125C14.5 31.1063 13.8564 31.75 13.0625 31.75C12.2686 31.75 11.625 31.1063 11.625 30.3125C11.625 29.5187 12.2686 28.875 13.0625 28.875C13.8564 28.875 14.5 29.5187 14.5 30.3125ZM46.125 30.3125C46.125 31.1063 45.4813 31.75 44.6875 31.75C43.8937 31.75 43.25 31.1063 43.25 30.3125C43.25 29.5187 43.8937 28.875 44.6875 28.875C45.4813 28.875 46.125 29.5187 46.125 30.3125Z" stroke="black" stroke-width="5.865" stroke-linecap="round" stroke-linejoin="round"/>
</svg>
