<svg width="30" height="30" viewBox="0 0 30 30" fill="none" xmlns="http://www.w3.org/2000/svg">
<path fill-rule="evenodd" clip-rule="evenodd" d="M15 6.59433C15.0002 6.2422 15.0995 5.89724 15.2867 5.59895C15.4738 5.30067 15.7412 5.06111 16.0582 4.90771C16.3751 4.75432 16.7289 4.69328 17.0789 4.73159C17.429 4.7699 17.7612 4.90601 18.0375 5.12433L28.065 13.0612C28.2867 13.2367 28.4658 13.4602 28.5889 13.7147C28.7121 13.9693 28.776 14.2484 28.776 14.5312C28.776 14.814 28.7121 15.0931 28.5889 15.3477C28.4658 15.6022 28.2867 15.8257 28.065 16.0012L18.0393 23.9381C17.7631 24.157 17.4307 24.2935 17.0804 24.3322C16.73 24.3708 16.3759 24.3098 16.0586 24.1564C15.7413 24.0029 15.4737 23.7631 15.2864 23.4645C15.0992 23.1659 14.9999 22.8205 15 22.4681V19.5712C13.575 19.4906 12.2175 19.5768 10.7737 19.98C8.90995 20.5031 6.80245 21.5868 4.19995 23.7112C3.90756 23.9535 3.54808 24.1006 3.16971 24.1328C2.79134 24.1649 2.41218 24.0807 2.08308 23.8912C1.73383 23.6903 1.46191 23.3782 1.31069 23.0047C1.15947 22.6313 1.13765 22.2179 1.2487 21.8306C2.02683 19.0181 3.92058 15.9412 6.5137 13.5581C8.7937 11.4637 11.7075 9.82683 15 9.45371V6.59433ZM17.8125 8.53308V10.7831C17.8125 11.156 17.6643 11.5137 17.4006 11.7775C17.1368 12.0412 16.7792 12.1893 16.4062 12.1893C13.4325 12.1893 10.6575 13.5731 8.41683 15.63C7.21788 16.734 6.18527 18.006 5.3512 19.4062C6.99745 18.3712 8.52933 17.6887 10.0162 17.2725C12.3543 16.6162 14.4731 16.6537 16.56 16.8843C16.9041 16.9222 17.2221 17.0856 17.4532 17.3434C17.6843 17.6011 17.8122 17.935 17.8125 18.2812V20.5312L25.3912 14.5312L17.8125 8.53308Z" fill="white"/>
</svg>
