<?xml version="1.0" encoding="UTF-8"?>
<svg version="1.1" viewBox="0 0 912 884" width="228" height="221" xmlns="http://www.w3.org/2000/svg">
<path transform="translate(530,83)" d="m0 0h22l16 3 15 6 14 8 13 11 8 8 11 15 10 19 6 17 5 24 1 9v19l-4 23-4 15-8 18-6 11-9 12-9 10-7 7-1 4 12 5 41 13 25 8 21 7 26 4 15 5 18 8 14 10 10 9 7 9 7 14 3 10 17 119 10 78 3 36v23l-3 12-6 10-8 8-16 8-12 3h-34l-21-3v81l-1 1h-21l-1-2v-82l-1-1-25-3-14-1h-11l-19 5-15 3-16 1v30l-2 11-4 10-8 11-9 8-16 8-9 2h-398l-13-4-11-6-10-9-7-11-4-10-1-5-1-27v-252l2-18 8-16 9-10 11-7 10-4 11-2 115-1 10-19 11-12 9-8 13-8 12-6 22-7 22-3 100-32-2-5-11-11-11-14-8-13-8-18-6-21-2-17v-26l3-21 7-21 8-16 9-14 9-11 8-8 14-10 16-8 12-4zm2 22-16 4-16 8-10 8-11 11-10 15-6 13-6 18-3 17v24l3 17 5 17 8 16 7 11 9 10 11 10 12 7 16 6 6 1h20l12-3 14-6 13-9 8-7 11-14 8-14 7-18 4-25v-20l-3-21-6-18-10-19-8-10-5-6-14-11-16-8-10-3-7-1zm-31 227v13l2 10 6 9 11 8 14 5h15l7-2 14-7 8-10 3-8v-17l-3-1-10 4-9 2-9 1h-19l-17-3-11-4zm81 16 3 10h1v-6zm-106 0-33 10-54 17-15 3-16 3-15 5-16 9-13 11-8 10v3h75l10-4 64-32 5-3 2 1v37l1 1 96 1 13 3 13 7 10 9 7 11 4 11 1 7 1 83 9 3 20 8 18 11 13 11 11-3 12-4 12-2 1-1v-101h22v99l36 3 14 2v10l-1 11-12-2-13-1h-40l-12 2-18 6 1 5 5 15 3 13 1 9v13l-3 16-4 14 8 2 38 5 28 4 18 1 14-2 9-4 8-6 3-5 1-4v-23l-4-38-5-42-7-51-12-83-4-20-5-10-9-10-12-9-17-9-20-5-17-2-59-19-32-10h-4l-3 12-4 10-7 9-8 7-16 8-11 3-6 1h-16l-14-3-15-8-11-9-7-10-4-11-1-9zm102 18m-23 12 1 2 2-1zm-116 37-47 23-6 3-222 1-9 3-6 4-6 7-4 7-2 13v271l3 12 6 8 7 6 10 4 5 1 291 1 98-1 12-4 9-7 6-9 2-7 1-8v-18l-1-5-10-4-18-4-16-8-10-9-6-10-5-15-1-7v-13l3-12 6-11 10-10 15-9 13-6 10-4 1-2-6-9-3-6-1-7 2-9 6-9 9-5 1-2v-81l-4-10-4-6-11-8-8-2h-118v-26zm150 105 1 2 1-2zm3 51-2 2 3 5 8 7 10 13 6 9-9 2-41 16-15 9-7 8-3 8-1 10 3 13 6 10 9 6 13 5 9 2 12 1h22l17-2 15-4 10-5 6-7 4-15 1-6v-14l-3-17-5-14-7-13-10-9-15-9-13-6-13-4z" fill="#010101"/>
<path transform="translate(336,499)" d="m0 0 13 1 9 4 6 5 10 15 1 4-10 8-4 5-1 2h2l2-4 10-9 4 1 6 11 12 21 14 24 13 23 14 24 15 26 7 12 4 13-1 11-4 10-8 9-9 5-3 1h-199l-8-4-8-7-7-14v-15l4-10 12-21 14-24 30-52 14-24 12-21 10-17 7-7 8-4zm-1 23-4 2-8 13-13 23-14 24-30 52-14 24-14 25v6l4 6 2 2 4 1h181l6-2 5-5v-8l-6-11-10-18-14-24-12-21-14-24-14-25-8-14-3-5-5-8-7-11-3-2zm42 17-5 4-2 3 1 6 3 2-1-8 7-7zm5 14 1 2 1-2zm-8 2m7 0m-5 2v2h2v-2zm13 4-15 5 1 2 12-3 4-2v-2z" fill="#010101"/>
<path transform="translate(718,133)" d="m0 0 5 2 6 7 5 5 6 7 9 15 7 16 6 20 1 5 1 20-1 15-7 26-7 16-10 15-9 10-7 8-5 2v-2l-4-2-4-4v-2l-4-2-2-4 13-13 11-16 7-15 4-18 1-11v-11l-3-21-4-12-7-14-9-12-9-10-4-5 7-8zm22 26m-1 1-4 5-2 10 1 6 4 6 6 5 5 2h6l-1-2-10-3-5-5-3-4v-11l4-7zm6 11v7l2 5 2 1-3-13z" fill="#010101"/>
<path transform="translate(183,139)" d="m0 0h156l1 1v19l-4 2h-152l-2-3v-18z" fill="#020202"/>
<path transform="translate(686,165)" d="m0 0 4 1 11 11 9 14 6 14 2 8v29l-4 13-8 16-8 10-9 9-4-1-4-5-3-2v-2l-4-2-1-5 7-6 9-12 4-11 2-6 1-11-2-13-5-13-6-9-6-7-4-3 1-5 6-6h2l2-4z" fill="#010101"/>
<path transform="translate(183,273)" d="m0 0h122l1 1v21l-3 1h-119l-1-1z" fill="#010101"/>
<path transform="translate(183,228)" d="m0 0h55l23 1v21l-1 1h-77l-1-6v-15z" fill="#010101"/>
<path transform="translate(261,184)" d="m0 0h78l1 5v16l-2 1h-76l-1-1z" fill="#010101"/>
<path transform="translate(328,565)" d="m0 0h22v67h-22z" fill="#010101"/>
<path transform="translate(284,228)" d="m0 0h54l2 4-1 18-1 1h-55v-22z" fill="#010101"/>
<path transform="translate(183,184)" d="m0 0h54l1 1v20l-1 1h-54z" fill="#010101"/>
<path transform="translate(329,655)" d="m0 0h20l1 1v20l-1 1h-20l-1-1v-20z" fill="#010101"/>
</svg>
