<svg width="60" height="60" viewBox="0 0 60 60" fill="none" xmlns="http://www.w3.org/2000/svg">
<path d="M56.3535 45.6779C51.5102 43.13 46.9172 41.3205 42.8528 40.4496C44.7468 38.0336 46.1816 35.1688 46.927 32.1348C48.7282 31.3994 50.0009 29.6296 50.0009 27.5671V19.9322C50.0009 18.0488 48.9398 16.4095 47.3843 15.5787C46.3567 6.98249 38.5669 0 30.0005 0C21.4344 0 13.645 6.98203 12.6169 15.5778C11.0615 16.4085 10.0004 18.0478 10.0004 19.9311V27.5685C10.0004 29.6309 11.273 31.3991 13.0738 32.1339C13.8191 35.1681 15.2539 38.0331 17.148 40.4494C13.0846 41.3203 8.49137 43.13 3.64845 45.6776C1.40646 46.8578 0 49.1871 0 51.72V57.5C0 58.8806 1.11924 59.9999 2.49992 59.9999H57.4989C58.8796 59.9999 59.9988 58.8806 59.9988 57.5V51.72C59.9989 49.1868 58.5947 46.8578 56.3535 45.6779ZM17.5007 17.4997C17.5007 10.8442 23.5308 4.99983 30.0005 4.99983C36.4702 4.99983 42.5003 10.8443 42.5003 17.4997V27.4994C42.5003 28.5295 42.3805 29.5577 42.1593 30.5657C38.724 31.6582 34.0767 32.4994 30.0013 32.4994C28.6207 32.4994 27.5014 33.6186 27.5014 34.9993C27.5014 36.38 28.6207 37.4992 30.0013 37.4992C33.1498 37.4992 36.5421 37.0688 39.6206 36.4017C38.5698 37.9514 37.2929 39.3011 35.8945 40.3338C35.8251 40.3737 35.7569 40.4157 35.6913 40.4624C34.3005 41.4506 32.8385 42.0931 31.3973 42.3521C30.9114 42.4375 30.541 42.4816 30.2146 42.4951C30.1433 42.4971 30.0719 42.4992 30.0005 42.4992C29.9272 42.4992 29.8538 42.4972 29.7803 42.495C29.4574 42.4815 29.0975 42.4394 28.6743 42.3665C27.163 42.093 25.701 41.4506 24.3102 40.4624C24.244 40.4154 24.1752 40.373 24.1052 40.3329C20.3709 37.5745 17.5007 32.5566 17.5007 27.4996V17.4997ZM54.9991 55.0001H4.99995V51.7201C4.99995 51.0436 5.37799 50.4177 5.97693 50.1024C11.3057 47.2991 16.2318 45.4968 20.1526 45.0003H22.075C24.4028 46.5054 26.989 47.4166 29.6383 47.4932C29.7589 47.4974 29.8794 47.5003 29.9995 47.5003C30.1197 47.5003 30.2401 47.4974 30.3605 47.4932C33.0106 47.4171 35.5974 46.5057 37.9259 45.0003H39.8464C43.7691 45.4968 48.6952 47.2989 54.0252 50.1028C54.6222 50.417 54.9991 51.0421 54.9991 51.7201V55.0001Z" fill="#131212"/>
</svg>
