<?xml version="1.0" encoding="UTF-8"?>
<svg version="1.1" viewBox="0 0 1016 1036" width="254" height="259" xmlns="http://www.w3.org/2000/svg">
<path transform="translate(521,43)" d="m0 0h57l28 3 36 6 35 9 29 10 30 13 27 14 24 15 20 14 16 13 11 9 15 14 20 20 9 11 9 10 12 16 13 19 12 20 12 22 11 24 11 29 9 30 6 27 5 35 2 20v60l-3 27-4 30-8 36-8 27-10 26-8 18-10 20-10 17-15 22-11 14-11 13-14 15-13 13-8 7-13 11-19 14-15 10-15 9-3 3 7 16 3 22v21l-2 18-4 13-7 16-6 10-8 11-11 12-11 9-13 8-15 7-19 6-14 2h-25l-15-3-18-6-16-8-14-10-12-11-10-12-7-11-7-14-6-18-1-5v-7l-12 1h-55l-35-2-6 25-8 18-7 11-8 10-8 9-14 11-13 8-16 7-17 5-12 2h-26l-15-3-19-6-17-9-12-9-12-11-8-9-10-15-7-15-6-19-2-11v-28l3-17 6-17 1-6-6-2-20-12-19-13-17-13-10-8-10-9-8-7-26-26-9-11-10-12-13-18-10-15-10-17-12-22-5-13 1-9 5-8 6-4 24-7 15-8 12-9 10-11 8-13 7-19 2-17-1-24-1-23v-23l2-34 3-25 8-37 8-27 9-24 11-25 11-22 13-22 15-22 13-17 9-11 12-14 28-28 11-9 13-11 18-13 15-10 18-11 24-13 27-12 27-10 24-7 30-7 32-5zm11 36-28 2-25 4-24 5-28 8-25 9-24 11-15 8-11 6-20 12-15 11-12 9-13 11-10 9-13 12-16 17-9 11-11 14-12 17-13 21-12 23-7 14-11 27-8 25-8 33-4 27-3 29v37l2 22v28l-4 20-7 19-9 16-9 12-6 6v2l-4 2-9 8-14 9-15 7-5 2 2 5 10 17 14 21 9 12 13 16 11 12 7 8h2l1 3 8 7 6 6h2v2l11 9 17 13 18 12 21 13 9 5 4-2 7-7 15-11 19-10 15-5 16-3 9-1h13l21 3 16 5 19 9 14 10 12 11 10 12 9 15 7 16 6 18 1 1 17 2 16 1h56l38-4 36-6 28-6 29-8 33-11 24-10 25-12 23-13 14-9 14-10 14-11 14-12 27-27 8-10 10-13 14-21 9-15 8-16 10-23 9-25 8-30 4-21 5-32 2-29v-41l-2-25-6-37-8-32-11-32-10-23-12-24-11-18-12-18-9-12-9-11-11-13-16-17-7-7-8-7-14-12-16-12-16-11-21-13-23-12-17-8-24-9-18-6-27-7-33-6-19-2-18-1z" fill="#030303"/>
<path transform="translate(434,513)" d="m0 0h11l8 4 6 7 11 26 11 18 9 11 9 10 13 11 14 9 15 8 19 7 12 2 11 1h24l21-3 21-8 17-9 14-10 12-11 6-7h2l2-4 9-13 8-14 9-21 4-7 5-4 6-3h11l10 5 6 7 1 3v10l-7 19-8 16-6 11-8 12-11 14-5 6-8 7-7 7-17 12-15 9-17 8-21 7-22 5-11 1h-30l-21-3-21-6-17-7-19-10-14-10-11-9-9-8-7-8-11-13-11-17-11-21-6-15-3-10v-6l4-8 8-6z" fill="#040404"/>
<path transform="translate(449,330)" d="m0 0h15l14 4 10 7 8 8 8 15 2 10v8l-2 11-8 15-3 4h-2l-1 3-11 7-10 4-5 1h-16l-10-3-11-6-9-9-6-10-4-11-1-12 2-10 6-14 9-10 9-7 11-4z" fill="#040404"/>
<path transform="translate(737,330)" d="m0 0h14l14 4 9 6 6 5 7 10 4 10 1 5v17l-3 11-6 10-11 11-12 6-9 2h-15l-9-2-11-6-9-8-7-11-4-11v-20l4-13 8-11 9-8 11-5z" fill="#030303"/>
</svg>
