<svg width="30" height="30" viewBox="0 0 30 30" fill="none" xmlns="http://www.w3.org/2000/svg">
<g clip-path="url(#clip0_32_1233)">
<path d="M23.7694 25.6144H6.23062C2.78954 25.6144 0 22.8248 0 19.3838V10.6162C0 7.17516 2.78954 4.38562 6.23062 4.38562H23.7694C27.2105 4.38562 30 7.17516 30 10.6162V19.3838C30 22.8248 27.2105 25.6144 23.7694 25.6144ZM19.5557 14.5734L11.3522 10.6609C11.1336 10.5566 10.8811 10.716 10.8811 10.9581V19.0278C10.8811 19.2734 11.1403 19.4326 11.3593 19.3216L19.5628 15.1644C19.8067 15.0409 19.8024 14.6911 19.5557 14.5734Z" fill="#DADADA"/>
</g>
<defs>
<clipPath id="clip0_32_1233">
<rect width="30" height="30" fill="white" transform="matrix(1 0 0 -1 0 30)"/>
</clipPath>
</defs>
</svg>
